<svg width="26" height="19" viewBox="0 0 26 19" fill="none" xmlns="http://www.w3.org/2000/svg">
<path d="M0.00299072 3.00809L10.6656 8.33875L21.3283 3.00809C21.2888 2.32868 20.9911 1.69008 20.4961 1.22306C20.001 0.756047 19.3462 0.495969 18.6656 0.496094H2.66565C1.9851 0.495969 1.33025 0.756047 0.835227 1.22306C0.340201 1.69008 0.0424628 2.32868 0.00299072 3.00809Z" fill="#1F2937"/>
<path fill-rule="evenodd" clip-rule="evenodd" d="M10.6667 11.3201L21.3333 5.98676V7.27842C21.2246 7.26227 21.1133 7.25391 21 7.25391C19.7574 7.25391 18.75 8.26127 18.75 9.50391V11.2539H17C15.7574 11.2539 14.75 12.2613 14.75 13.5039C14.75 14.7465 15.7574 15.7539 17 15.7539H18.75V16.4948C18.7223 16.4956 18.6945 16.4961 18.6666 16.4961H2.66666C1.95942 16.4961 1.28114 16.2151 0.781048 15.715C0.280951 15.2149 0 14.5367 0 13.8294V5.98676L10.6667 11.3201Z" fill="#1F2937"/>
<path d="M21 13.5039H17M21 9.50391V13.5039V9.50391ZM21 13.5039V17.5039V13.5039ZM21 13.5039H25H21Z" stroke="#8338EC" stroke-width="2" stroke-linecap="round" stroke-linejoin="round"/>
</svg>

