<svg version="1" xmlns="http://www.w3.org/2000/svg" width="682.667" height="682.667" viewBox="0 0 512.000000 512.000000"><path d="M0 256v256h512V0H0v256zm447.4-134.8c-1.5 2.4-56.8 85.9-100.7 152-24 36.2-43.9 65.8-44.2 65.8-.3 0-12.4-6.8-26.8-15.2-14.4-8.3-31.1-18-37.2-21.4-6-3.4-15.6-8.9-21.3-12.2l-10.3-6 15.3-10.4c8.4-5.8 19.8-13.4 25.3-17.1 5.5-3.6 20.7-13.9 33.7-22.9 25.1-17.2 48.1-32.9 118.7-81.2 23.9-16.3 42.9-29.6 42.3-29.6-.6 0-21.9 10.2-47.4 22.6-25.5 12.5-59.6 29.1-75.8 36.9-16.2 7.9-48.6 23.6-72 35-73.5 35.9-83.5 40.5-85.2 40.1-.9-.2-12.8-6.9-26.5-14.8-13.6-8-33.9-19.8-45-26.2-11.2-6.5-20.5-12.1-20.7-12.5-.3-.4 7.9-2.6 18.2-4.9 10.3-2.3 47.1-10.5 81.7-18.2 34.7-7.7 78.3-17.4 97-21.6 18.7-4.1 66-14.6 105-23.4 39.1-8.7 72.3-15.9 73.8-15.9 2-.1 2.6.3 2.1 1.1zM196.4 314c-4.7 13.4-9.2 25.6-9.9 27.3l-1.3 3.1-1.1-3.9c-1.8-7-8.9-36.9-9.6-40.7-.7-3.7-.7-3.7 3.7-4.8 2.3-.5 5.9-1.5 7.8-2 8.5-2.4 18.5-4.5 18.8-3.9.2.4-3.6 11.6-8.4 24.9z"/></svg>